<svg width="40" height="40" viewBox="0 0 40 40" fill="none" xmlns="http://www.w3.org/2000/svg">
<path d="M19.2401 0.0152099C23.0186 -0.133842 26.8351 0.815535 30.0952 2.73423C34.3769 5.22729 37.6713 9.36658 39.1143 14.1097C40.3779 18.1977 40.283 22.693 38.839 26.7212C37.658 30.0393 35.5779 33.0317 32.8817 35.296C30.25 37.5204 27.0326 39.047 23.6423 39.666C19.4299 40.452 14.9698 39.8416 11.1314 37.9314C8.95357 36.8492 6.97032 35.371 5.3203 33.5833C2.99718 31.0817 1.33102 27.9734 0.543986 24.6506C-0.33134 20.9746 -0.150958 17.0489 1.08988 13.4774C2.76458 8.55296 6.46335 4.36336 11.1314 2.07251C13.6454 0.816484 16.4328 0.119641 19.2401 0.0152099ZM24.6078 8.23397C20.2075 11.3641 15.8119 14.5018 11.4115 17.6319C10.8314 17.9651 10.3634 18.6268 10.5305 19.3208C10.6121 19.7186 11.0061 20.0148 11.4096 19.9949C14.8302 20.0025 18.2499 19.9398 21.6695 19.9844C21.5983 20.0186 21.455 20.0869 21.3828 20.1211C19.6616 20.7316 17.9347 21.3278 16.2173 21.9506C15.4312 24.7398 14.6479 27.5301 13.8609 30.3193C13.7811 30.6079 13.6701 30.9032 13.7166 31.208C13.7622 31.5516 14.0185 31.8659 14.3565 31.957C14.7353 32.069 15.1397 31.9409 15.454 31.7216C19.9046 28.5487 24.3572 25.3788 28.8079 22.2079C29.349 21.8414 29.6908 21.0743 29.3766 20.4582C29.2285 20.1278 28.8449 19.9835 28.5022 19.9968C26.7458 19.993 24.9885 19.9987 23.2322 19.9939C24.2338 16.4271 25.2411 12.8622 26.2417 9.29537C26.3443 8.93651 26.2911 8.50074 26.0015 8.24251C25.6151 7.89504 25.0132 7.95295 24.6078 8.23397Z" fill="#FAD007"/>
</svg>
